<svg width="183.000000" height="29.000000" viewBox="0 0 183 29" fill="none" xmlns="http://www.w3.org/2000/svg" xmlns:xlink="http://www.w3.org/1999/xlink">
	<desc>
			Created with Pixso.
	</desc>
	<defs/>
	<path id="SkyFitnessPro" d="M2.67 10.75C0.82 9.43 -0.6 7.78 -0.6 5.01C-0.6 1.23 1.83 -0.29 4.83 -0.29C7.88 -0.29 10.32 1.53 10.32 5.31L10.32 6.71L6.96 6.71L6.96 5.4C6.96 3.61 6.14 2.79 4.83 2.79C3.6 2.79 2.76 3.58 2.76 5.01C2.76 6.41 3.65 7.28 4.83 8.12L7.29 9.88C9.11 11.2 10.6 12.85 10.6 15.53C10.6 19.37 8.02 21.28 4.86 21.28C1.69 21.28 -0.88 19.29 -0.88 15.67L-0.88 14L2.48 14L2.48 15.48C2.48 17.16 3.43 18.2 4.86 18.2C6.31 18.2 7.24 17.36 7.24 15.96C7.24 14.39 6.31 13.35 5.05 12.46L2.67 10.75ZM14.11 0L17.46 0L17.46 13.1L22.9 7L27.32 7L21.16 13.35L27.69 21L23.49 21L17.46 13.63L17.46 21L14.11 21L14.11 0ZM49.44 12.31L49.44 21L46.08 21L46.08 0L55.72 0L55.72 3.07L49.44 3.07L49.44 9.23L54.88 9.23L54.88 12.31L49.44 12.31ZM62.57 2.09C62.57 3.27 61.7 4.19 60.47 4.19C59.26 4.19 58.37 3.27 58.37 2.09C58.37 0.89 59.26 0 60.47 0C61.7 0 62.57 0.89 62.57 2.09ZM145.15 13.15L145.15 21L141.79 21L141.79 0L147.92 0C151.36 0 153.83 1.98 153.83 5.73L153.83 7.14C153.83 11.03 151.36 13.15 147.92 13.15L145.15 13.15ZM70.82 9.93L70.82 16.21C70.82 17.58 71.46 18.2 72.92 18.2C73.39 18.2 73.98 18.11 74.46 17.94L74.46 20.94C73.95 21.11 73.06 21.28 72.25 21.28C69.47 21.28 67.46 20.18 67.46 16.43L67.46 9.93L65.22 9.93L65.22 7L67.46 7L67.46 2.79L70.82 2.79L70.82 7L74.46 7L74.46 9.93L70.82 9.93ZM150.47 6.02C150.47 3.89 149.37 3.07 147.64 3.07L145.15 3.07L145.15 10.08L147.64 10.08C149.37 10.08 150.47 9.15 150.47 6.85L150.47 6.02ZM87.33 21L87.33 13.29C87.33 10.94 86.21 9.65 84.39 9.65C82.57 9.65 81.45 10.94 81.45 13.29L81.45 21L78.09 21L78.09 7L81.45 7L81.45 9.01C82.32 7.53 83.74 6.71 85.48 6.71C88.45 6.71 90.69 8.67 90.69 12.62L90.69 21L87.33 21ZM107.94 14C107.94 14.39 107.91 14.75 107.88 15.12L97.35 15.12C97.72 17.16 99.06 18.34 101.13 18.34C102.62 18.34 103.48 17.78 103.93 16.79L107.57 16.79C106.73 19.71 104.3 21.28 100.99 21.28C96.99 21.28 94.05 18.28 94.05 14C94.05 9.71 96.99 6.71 100.99 6.71C105 6.71 107.94 9.71 107.94 14ZM114.25 10.8C114.25 13.49 122.48 11.2 122.48 16.96C122.48 19.62 120.04 21.28 116.77 21.28C113.27 21.28 110.61 19.48 110.61 16.37L114.11 16.37C114.11 17.89 115.26 18.64 116.77 18.64C118.17 18.64 119.01 18.14 119.01 17.1C119.01 14.14 110.86 16.65 110.86 10.94C110.86 8.34 113.24 6.71 116.35 6.71C119.71 6.71 122.23 8.79 122.23 11.45L118.73 11.45C118.73 10.27 117.72 9.38 116.35 9.38C115.09 9.38 114.25 9.91 114.25 10.8ZM128.92 10.8C128.92 13.49 137.15 11.2 137.15 16.96C137.15 19.62 134.71 21.28 131.44 21.28C127.94 21.28 125.28 19.48 125.28 16.37L128.78 16.37C128.78 17.89 129.92 18.64 131.44 18.64C132.84 18.64 133.68 18.14 133.68 17.1C133.68 14.14 125.53 16.65 125.53 10.94C125.53 8.34 127.91 6.71 131.02 6.71C134.38 6.71 136.9 8.79 136.9 11.45L133.4 11.45C133.4 10.27 132.39 9.38 131.02 9.38C129.76 9.38 128.92 9.91 128.92 10.8ZM157.19 7L160.55 7L160.55 9.26C161.56 7.61 163.21 6.71 165.26 6.71C165.51 6.71 165.79 6.71 165.96 6.77L165.96 10.44C165.57 10.3 165.06 10.22 164.5 10.22C162.01 10.22 160.55 11.5 160.55 13.86L160.55 21L157.19 21L157.19 7ZM182.07 14C182.07 18.28 179.02 21.28 174.93 21.28C170.85 21.28 167.79 18.28 167.79 14C167.79 9.71 170.85 6.71 174.93 6.71C179.02 6.71 182.07 9.71 182.07 14ZM42.43 7L37.13 22.45C35.96 25.9 34.45 28.28 30.89 28.28C30.08 28.28 29.27 28.14 28.73 27.97L28.73 25C29.27 25.17 29.91 25.31 30.58 25.31C32.15 25.31 33.13 24.38 33.94 22.42L28.68 7L32.04 7L35.54 17.78L39.07 7L42.43 7ZM62.15 7L62.15 21L58.79 21L58.79 7L62.15 7ZM104.6 12.74C104.24 10.78 102.95 9.65 100.99 9.65C99.03 9.65 97.74 10.78 97.38 12.74L104.6 12.74ZM171.15 14C171.15 16.52 172.78 18.2 174.93 18.2C177.09 18.2 178.71 16.52 178.71 14C178.71 11.48 177.09 9.79 174.93 9.79C172.78 9.79 171.15 11.48 171.15 14Z" fill="#000000" fill-opacity="1.000000" fill-rule="evenodd"/>
</svg>
