<svg>
    <symbol id="icon-complexity" viewBox="0 0 18 18" xmlns="http://www.w3.org/2000/svg">
        <defs>
            <clipPath id="clip60_1388">
                <rect id="mingcute:signal-fill" width="18.000000" height="18.000000" fill="white" fill-opacity="0" />
            </clipPath>
        </defs>
            <rect id="mingcute:signal-fill" width="18.000000" height="18.000000" fill="#FFFFFF" fill-opacity="0" />
                <g clip-path="url(#clip60_1388)">
                    <path 
                        id="Vector"
                        d="M15 2.62C15.29 2.62 15.58 2.74 15.79 2.95C16 3.16 16.12 3.45 16.12 3.75L16.12 14.25C16.12 14.54 16 14.83 15.79 15.04C15.58 15.25 15.29 15.37 15 15.37C14.7 15.37 14.41 15.25 14.2 15.04C13.99 14.83 13.87 14.54 13.87 14.25L13.87 3.75C13.87 3.45 13.99 3.16 14.2 2.95C14.41 2.74 14.7 2.62 15 2.62Z"
                        fill="#D9D9D9"
                        fill-opacity="1.000000"
                        fill-rule="evenodd"
                    />
                    <path
                        id="Vector"
                        d="M12 4.87C12.29 4.87 12.58 4.99 12.79 5.2C13 5.41 13.12 5.7 13.12 6L13.12 14.25C13.12 14.54 13 14.83 12.79 15.04C12.58 15.25 12.29 15.37 12 15.37C11.7 15.37 11.41 15.25 11.2 15.04C10.99 14.83 10.87 14.54 10.87 14.25L10.87 6C10.87 5.7 10.99 5.41 11.2 5.2C11.41 4.99 11.7 4.87 12 4.87Z"
                        fill="#D9D9D9"
                        fill-opacity="1.000000"
                        fill-rule="evenodd"
                    />
                    <path
                        id="Vector"
                        d="M9 7.12C9.29 7.12 9.58 7.24 9.79 7.45C10 7.66 10.12 7.95 10.12 8.25L10.12 14.25C10.12 14.54 10 14.83 9.79 15.04C9.58 15.25 9.29 15.37 9 15.37C8.7 15.37 8.41 15.25 8.2 15.04C7.99 14.83 7.87 14.54 7.87 14.25L7.87 8.25C7.87 7.95 7.99 7.66 8.2 7.45C8.41 7.24 8.7 7.12 9 7.12Z"
                        fill="#00C1FF"
                        fill-opacity="1.000000"
                        fill-rule="evenodd"
                    />
                    <path
                        id="Vector"
                        d="M6 9.37C6.29 9.37 6.58 9.49 6.79 9.7C7 9.91 7.12 10.2 7.12 10.5L7.12 14.25C7.12 14.54 7 14.83 6.79 15.04C6.58 15.25 6.29 15.37 6 15.37C5.7 15.37 5.41 15.25 5.2 15.04C4.99 14.83 4.87 14.54 4.87 14.25L4.87 10.5C4.87 10.2 4.99 9.91 5.2 9.7C5.41 9.49 5.7 9.37 6 9.37Z"
                        fill="#00C1FF"
                        fill-opacity="1.000000"
                        fill-rule="evenodd"
                    />
                    <path
                        id="Vector"
                        d="M3 11.62C3.29 11.62 3.58 11.74 3.79 11.95C4 12.16 4.12 12.45 4.12 12.75L4.12 14.25C4.12 14.54 4 14.83 3.79 15.04C3.58 15.25 3.29 15.37 3 15.37C2.7 15.37 2.41 15.25 2.2 15.04C1.99 14.83 1.87 14.54 1.87 14.25L1.87 12.75C1.87 12.45 1.99 12.16 2.2 11.95C2.41 11.74 2.7 11.62 3 11.62Z"
                        fill="#00C1FF"
                        fill-opacity="1.000000"
                        fill-rule="evenodd"
                    />
                </g>
    </symbol>
    <symbol id="icon-time" viewBox="0 0 18 18" xmlns="http://www.w3.org/2000/svg" >
        <defs>
            <clipPath id="clip60_1383">
                <rect id="Time" width="18.000000" height="18.000000" fill="white" fill-opacity="0" />
            </clipPath>
        </defs>
            <g clip-path="url(#clip60_1383)">
                <path
                    id="Icon"
                    d="M9 16.5C13.14 16.5 16.5 13.14 16.5 9C16.5 4.85 13.14 1.5 9 1.5C4.85 1.5 1.5 4.85 1.5 9C1.5 13.14 4.85 16.5 9 16.5ZM8.25 4.5L8.25 9C8.25 9.41 8.58 9.75 9 9.75L12.75 9.75L12.75 8.25L9.75 8.25L9.75 4.5L8.25 4.5Z"
                    fill="#202020"
                    fill-opacity="1.000000"
                    fill-rule="evenodd"
                />
            </g>
    </symbol>
    <symbol id="icon-duration" viewBox="0 0 15 15" xmlns="http://www.w3.org/2000/svg" >
        <defs />
        <path
            id="Icon"
            d="M4 -0.88C4.82 -0.88 5.5 -0.21 5.5 0.62L8.5 0.62C8.5 -0.21 9.17 -0.88 10 -0.88C10.82 -0.88 11.5 -0.21 11.5 0.62C13.15 0.62 14.5 1.96 14.5 3.62L-0.5 3.62C-0.5 1.96 0.84 0.62 2.5 0.62C2.5 -0.21 3.17 -0.88 4 -0.88ZM14.5 5.12L-0.5 5.12L-0.5 9.32C-0.5 11 -0.5 11.84 -0.18 12.48C0.11 13.05 0.57 13.51 1.13 13.79C1.77 14.12 2.61 14.12 4.29 14.12L9.7 14.12C11.38 14.12 12.22 14.12 12.86 13.79C13.42 13.51 13.88 13.05 14.17 12.48C14.5 11.84 14.5 11 14.5 9.32L14.5 5.12ZM8.58 8.53C8.5 8.69 8.5 8.9 8.5 9.32L8.5 9.92C8.5 10.34 8.5 10.55 8.58 10.71C8.65 10.85 8.76 10.97 8.9 11.04C9.06 11.12 9.27 11.12 9.7 11.12L10.29 11.12C10.72 11.12 10.93 11.12 11.09 11.04C11.23 10.97 11.34 10.85 11.41 10.71C11.5 10.55 11.5 10.34 11.5 9.92L11.5 9.32C11.5 8.9 11.5 8.69 11.41 8.53C11.34 8.39 11.23 8.27 11.09 8.2C10.93 8.12 10.72 8.12 10.29 8.12L9.7 8.12C9.27 8.12 9.06 8.12 8.9 8.2C8.76 8.27 8.65 8.39 8.58 8.53Z"
            fill="#202020"
            fill-opacity="1.000000"
            fill-rule="evenodd"
        />
    </symbol>
    <symbol id="icon-arrow" viewBox="0 0 13 8" xmlns="http://www.w3.org/2000/svg">
	    <defs/>
	    <path id="Rectangle 3765" d="M12.06 0.74L5.67 7.12L-0.71 0.74L0.7 -0.68L6.38 5L5.67 5.71L4.97 5L10.64 -0.68L12.06 0.74Z" fill="#000000" fill-opacity="1.000000" fill-rule="evenodd"/>
    </symbol>
    <symbol id="icon-delete" viewBox="0 0 27 27" xmlns="http://www.w3.org/2000/svg" >
	    <defs/>
	    <path id="Icon" d="M13 26.33C20.36 26.33 26.33 20.36 26.33 13C26.33 5.63 20.36 -0.34 13 -0.34C5.63 -0.34 -0.34 5.63 -0.34 13C-0.34 20.36 5.63 26.33 13 26.33ZM6.33 11.66L6.33 14.33L19.66 14.33L19.66 11.66L6.33 11.66Z" fill="#FFFFFF" fill-opacity="1.000000" fill-rule="evenodd"/>
    </symbol>
    <symbol id="icon-star" viewBox="0 0 19 19" xmlns="http://www.w3.org/2000/svg">
	    <defs/>
	    <path id="Icon" d="M8.46 0.36C8.62 -0.3 8.69 -0.63 8.82 -0.71C8.93 -0.77 9.06 -0.77 9.17 -0.71C9.3 -0.63 9.37 -0.3 9.53 0.36L10.29 3.6C10.58 4.8 10.72 5.4 11.03 5.89C11.3 6.32 11.67 6.69 12.1 6.96C12.59 7.27 13.19 7.41 14.39 7.7L17.63 8.46C18.29 8.62 18.62 8.69 18.7 8.82C18.76 8.93 18.76 9.06 18.7 9.17C18.62 9.3 18.29 9.37 17.63 9.53L14.39 10.29C13.19 10.58 12.59 10.72 12.1 11.03C11.67 11.3 11.3 11.67 11.03 12.1C10.72 12.59 10.58 13.19 10.29 14.39L9.53 17.63C9.37 18.29 9.3 18.62 9.17 18.7C9.06 18.76 8.93 18.76 8.82 18.7C8.69 18.62 8.62 18.29 8.46 17.63L7.7 14.39C7.41 13.19 7.27 12.59 6.96 12.1C6.69 11.67 6.32 11.3 5.89 11.03C5.4 10.72 4.8 10.58 3.6 10.29L0.36 9.53C-0.3 9.37 -0.63 9.3 -0.71 9.17C-0.77 9.06 -0.77 8.93 -0.71 8.82C-0.63 8.69 -0.3 8.62 0.36 8.46L3.6 7.7C4.8 7.41 5.4 7.27 5.89 6.96C6.32 6.69 6.69 6.32 6.96 5.89C7.27 5.4 7.41 4.8 7.7 3.6L8.46 0.36Z" fill="#000000" fill-opacity="1.000000" fill-rule="nonzero"/>
    </symbol>
    <symbol id="icon-add" viewBox="0 0 32 32"  xmlns="http://www.w3.org/2000/svg">
	    <defs>
		    <clipPath id="clip33_2051">
			<rect id="Add-in-Circle" width="32.000000" height="32.000000" fill="white" fill-opacity="0"/>
		    </clipPath>
	    </defs>
	    <g clip-path="url(#clip33_2051)">
		    <path id="Icon" d="M16 29.33C23.36 29.33 29.33 23.36 29.33 16C29.33 8.63 23.36 2.66 16 2.66C8.63 2.66 2.66 8.63 2.66 16C2.66 23.36 8.63 29.33 16 29.33ZM14.66 14.66L14.66 9.33L17.33 9.33L17.33 14.66L22.66 14.66L22.66 17.33L17.33 17.33L17.33 22.66L14.66 22.66L14.66 17.33L9.33 17.33L9.33 14.66L14.66 14.66Z" fill="#FFFFFF" fill-opacity="1.000000" fill-rule="evenodd"/>
	    </g>
    </symbol>
    <symbol id="icon-checked" viewBox="0 0 20 20" xmlns="http://www.w3.org/2000/svg">
        <path fill-rule="evenodd" d="M16.707 5.293a1 1 0 010 1.414l-8 8a1 1 0 01-1.414 0l-4-4a1 1 0 011.414-1.414L8 12.586l7.293-7.293a1 1 0 011.414 0z" clip-rule="evenodd"></path>
    </symbol>
    <symbol id="icon-levelOne" viewBox="0 0 18 18" xmlns="http://www.w3.org/2000/svg">
	    <defs/>
	    <path id="Vector" d="M15 2.62C15.29 2.62 15.58 2.74 15.79 2.95C16 3.16 16.12 3.45 16.12 3.75L16.12 14.25C16.12 14.54 16 14.83 15.79 15.04C15.58 15.25 15.29 15.37 15 15.37C14.7 15.37 14.41 15.25 14.2 15.04C13.99 14.83 13.87 14.54 13.87 14.25L13.87 3.75C13.87 3.45 13.99 3.16 14.2 2.95C14.41 2.74 14.7 2.62 15 2.62Z" fill="#D9D9D9" fill-opacity="1.000000" fill-rule="evenodd"/>
	    <path id="Vector" d="M12 4.87C12.29 4.87 12.58 4.99 12.79 5.2C13 5.41 13.12 5.7 13.12 6L13.12 14.25C13.12 14.54 13 14.83 12.79 15.04C12.58 15.25 12.29 15.37 12 15.37C11.7 15.37 11.41 15.25 11.2 15.04C10.99 14.83 10.87 14.54 10.87 14.25L10.87 6C10.87 5.7 10.99 5.41 11.2 5.2C11.41 4.99 11.7 4.87 12 4.87Z" fill="#D9D9D9" fill-opacity="1.000000" fill-rule="evenodd"/>
	    <path id="Vector" d="M9 7.12C9.29 7.12 9.58 7.24 9.79 7.45C10 7.66 10.12 7.95 10.12 8.25L10.12 14.25C10.12 14.54 10 14.83 9.79 15.04C9.58 15.25 9.29 15.37 9 15.37C8.7 15.37 8.41 15.25 8.2 15.04C7.99 14.83 7.87 14.54 7.87 14.25L7.87 8.25C7.87 7.95 7.99 7.66 8.2 7.45C8.41 7.24 8.7 7.12 9 7.12Z" fill="#D9D9D9" fill-opacity="1.000000" fill-rule="evenodd"/>
	    <path id="Vector" d="M6 9.37C6.29 9.37 6.58 9.49 6.79 9.7C7 9.91 7.12 10.2 7.12 10.5L7.12 14.25C7.12 14.54 7 14.83 6.79 15.04C6.58 15.25 6.29 15.37 6 15.37C5.7 15.37 5.41 15.25 5.2 15.04C4.99 14.83 4.87 14.54 4.87 14.25L4.87 10.5C4.87 10.2 4.99 9.91 5.2 9.7C5.41 9.49 5.7 9.37 6 9.37Z" fill="#D9D9D9" fill-opacity="1.000000" fill-rule="evenodd"/>
	    <path id="Vector" d="M3 11.62C3.29 11.62 3.58 11.74 3.79 11.95C4 12.16 4.12 12.45 4.12 12.75L4.12 14.25C4.12 14.54 4 14.83 3.79 15.04C3.58 15.25 3.29 15.37 3 15.37C2.7 15.37 2.41 15.25 2.2 15.04C1.99 14.83 1.87 14.54 1.87 14.25L1.87 12.75C1.87 12.45 1.99 12.16 2.2 11.95C2.41 11.74 2.7 11.62 3 11.62Z" fill="#00C1FF" fill-opacity="1.000000" fill-rule="evenodd"/>
    </symbol>
    <symbol id="icon-levelTwo" viewBox="0 0 18 18" xmlns="http://www.w3.org/2000/svg">
	    <defs>
		<clipPath id="clip60_1304">
			<rect id="mingcute:signal-fill" width="18.000000" height="18.000000" fill="white" fill-opacity="0"/>
		</clipPath>
	    </defs>
	    <rect id="mingcute:signal-fill" width="18.000000" height="18.000000" fill="#FFFFFF" fill-opacity="0"/>
	    <g clip-path="url(#clip60_1304)">
		<path id="Vector" d="M15 2.62C15.29 2.62 15.58 2.74 15.79 2.95C16 3.16 16.12 3.45 16.12 3.75L16.12 14.25C16.12 14.54 16 14.83 15.79 15.04C15.58 15.25 15.29 15.37 15 15.37C14.7 15.37 14.41 15.25 14.2 15.04C13.99 14.83 13.87 14.54 13.87 14.25L13.87 3.75C13.87 3.45 13.99 3.16 14.2 2.95C14.41 2.74 14.7 2.62 15 2.62Z" fill="#D9D9D9" fill-opacity="1.000000" fill-rule="evenodd"/>
		<path id="Vector" d="M12 4.87C12.29 4.87 12.58 4.99 12.79 5.2C13 5.41 13.12 5.7 13.12 6L13.12 14.25C13.12 14.54 13 14.83 12.79 15.04C12.58 15.25 12.29 15.37 12 15.37C11.7 15.37 11.41 15.25 11.2 15.04C10.99 14.83 10.87 14.54 10.87 14.25L10.87 6C10.87 5.7 10.99 5.41 11.2 5.2C11.41 4.99 11.7 4.87 12 4.87Z" fill="#D9D9D9" fill-opacity="1.000000" fill-rule="evenodd"/>
		<path id="Vector" d="M9 7.12C9.29 7.12 9.58 7.24 9.79 7.45C10 7.66 10.12 7.95 10.12 8.25L10.12 14.25C10.12 14.54 10 14.83 9.79 15.04C9.58 15.25 9.29 15.37 9 15.37C8.7 15.37 8.41 15.25 8.2 15.04C7.99 14.83 7.87 14.54 7.87 14.25L7.87 8.25C7.87 7.95 7.99 7.66 8.2 7.45C8.41 7.24 8.7 7.12 9 7.12Z" fill="#D9D9D9" fill-opacity="1.000000" fill-rule="evenodd"/>
		<path id="Vector" d="M6 9.37C6.29 9.37 6.58 9.49 6.79 9.7C7 9.91 7.12 10.2 7.12 10.5L7.12 14.25C7.12 14.54 7 14.83 6.79 15.04C6.58 15.25 6.29 15.37 6 15.37C5.7 15.37 5.41 15.25 5.2 15.04C4.99 14.83 4.87 14.54 4.87 14.25L4.87 10.5C4.87 10.2 4.99 9.91 5.2 9.7C5.41 9.49 5.7 9.37 6 9.37Z" fill="#00C1FF" fill-opacity="1.000000" fill-rule="evenodd"/>
		<path id="Vector" d="M3 11.62C3.29 11.62 3.58 11.74 3.79 11.95C4 12.16 4.12 12.45 4.12 12.75L4.12 14.25C4.12 14.54 4 14.83 3.79 15.04C3.58 15.25 3.29 15.37 3 15.37C2.7 15.37 2.41 15.25 2.2 15.04C1.99 14.83 1.87 14.54 1.87 14.25L1.87 12.75C1.87 12.45 1.99 12.16 2.2 11.95C2.41 11.74 2.7 11.62 3 11.62Z" fill="#00C1FF" fill-opacity="1.000000" fill-rule="evenodd"/>
	    </g>
    </symbol>
    <symbol id="icon-levelThree" viewBox="0 0 18 18" xmlns="http://www.w3.org/2000/svg">
	    <defs/>
	    <path id="Vector" d="M15 2.62C15.29 2.62 15.58 2.74 15.79 2.95C16 3.16 16.12 3.45 16.12 3.75L16.12 14.25C16.12 14.54 16 14.83 15.79 15.04C15.58 15.25 15.29 15.37 15 15.37C14.7 15.37 14.41 15.25 14.2 15.04C13.99 14.83 13.87 14.54 13.87 14.25L13.87 3.75C13.87 3.45 13.99 3.16 14.2 2.95C14.41 2.74 14.7 2.62 15 2.62Z" fill="#D9D9D9" fill-opacity="1.000000" fill-rule="evenodd"/>
	    <path id="Vector" d="M12 4.87C12.29 4.87 12.58 4.99 12.79 5.2C13 5.41 13.12 5.7 13.12 6L13.12 14.25C13.12 14.54 13 14.83 12.79 15.04C12.58 15.25 12.29 15.37 12 15.37C11.7 15.37 11.41 15.25 11.2 15.04C10.99 14.83 10.87 14.54 10.87 14.25L10.87 6C10.87 5.7 10.99 5.41 11.2 5.2C11.41 4.99 11.7 4.87 12 4.87Z" fill="#D9D9D9" fill-opacity="1.000000" fill-rule="evenodd"/>
	    <path id="Vector" d="M9 7.12C9.29 7.12 9.58 7.24 9.79 7.45C10 7.66 10.12 7.95 10.12 8.25L10.12 14.25C10.12 14.54 10 14.83 9.79 15.04C9.58 15.25 9.29 15.37 9 15.37C8.7 15.37 8.41 15.25 8.2 15.04C7.99 14.83 7.87 14.54 7.87 14.25L7.87 8.25C7.87 7.95 7.99 7.66 8.2 7.45C8.41 7.24 8.7 7.12 9 7.12Z" fill="#00C1FF" fill-opacity="1.000000" fill-rule="evenodd"/>
	    <path id="Vector" d="M6 9.37C6.29 9.37 6.58 9.49 6.79 9.7C7 9.91 7.12 10.2 7.12 10.5L7.12 14.25C7.12 14.54 7 14.83 6.79 15.04C6.58 15.25 6.29 15.37 6 15.37C5.7 15.37 5.41 15.25 5.2 15.04C4.99 14.83 4.87 14.54 4.87 14.25L4.87 10.5C4.87 10.2 4.99 9.91 5.2 9.7C5.41 9.49 5.7 9.37 6 9.37Z" fill="#00C1FF" fill-opacity="1.000000" fill-rule="evenodd"/>
	    <path id="Vector" d="M3 11.62C3.29 11.62 3.58 11.74 3.79 11.95C4 12.16 4.12 12.45 4.12 12.75L4.12 14.25C4.12 14.54 4 14.83 3.79 15.04C3.58 15.25 3.29 15.37 3 15.37C2.7 15.37 2.41 15.25 2.2 15.04C1.99 14.83 1.87 14.54 1.87 14.25L1.87 12.75C1.87 12.45 1.99 12.16 2.2 11.95C2.41 11.74 2.7 11.62 3 11.62Z" fill="#00C1FF" fill-opacity="1.000000" fill-rule="evenodd"/>
    </symbol>
    <symbol id="icon-levelFour" viewBox="0 0 18 18" xmlns="http://www.w3.org/2000/svg">
	    <defs>
		<clipPath id="clip60_1304">
			<rect id="mingcute:signal-fill" width="18.000000" height="18.000000" fill="white" fill-opacity="0"/>
		</clipPath>
	    </defs>
	    <rect id="mingcute:signal-fill" width="18.000000" height="18.000000" fill="#FFFFFF" fill-opacity="0"/>
	    <g clip-path="url(#clip60_1304)">
		<path id="Vector" d="M15 2.62C15.29 2.62 15.58 2.74 15.79 2.95C16 3.16 16.12 3.45 16.12 3.75L16.12 14.25C16.12 14.54 16 14.83 15.79 15.04C15.58 15.25 15.29 15.37 15 15.37C14.7 15.37 14.41 15.25 14.2 15.04C13.99 14.83 13.87 14.54 13.87 14.25L13.87 3.75C13.87 3.45 13.99 3.16 14.2 2.95C14.41 2.74 14.7 2.62 15 2.62Z" fill="#D9D9D9" fill-opacity="1.000000" fill-rule="evenodd"/>
		<path id="Vector" d="M12 4.87C12.29 4.87 12.58 4.99 12.79 5.2C13 5.41 13.12 5.7 13.12 6L13.12 14.25C13.12 14.54 13 14.83 12.79 15.04C12.58 15.25 12.29 15.37 12 15.37C11.7 15.37 11.41 15.25 11.2 15.04C10.99 14.83 10.87 14.54 10.87 14.25L10.87 6C10.87 5.7 10.99 5.41 11.2 5.2C11.41 4.99 11.7 4.87 12 4.87Z" fill="#00C1FF" fill-opacity="1.000000" fill-rule="evenodd"/>
		<path id="Vector" d="M9 7.12C9.29 7.12 9.58 7.24 9.79 7.45C10 7.66 10.12 7.95 10.12 8.25L10.12 14.25C10.12 14.54 10 14.83 9.79 15.04C9.58 15.25 9.29 15.37 9 15.37C8.7 15.37 8.41 15.25 8.2 15.04C7.99 14.83 7.87 14.54 7.87 14.25L7.87 8.25C7.87 7.95 7.99 7.66 8.2 7.45C8.41 7.24 8.7 7.12 9 7.12Z" fill="#00C1FF" fill-opacity="1.000000" fill-rule="evenodd"/>
		<path id="Vector" d="M6 9.37C6.29 9.37 6.58 9.49 6.79 9.7C7 9.91 7.12 10.2 7.12 10.5L7.12 14.25C7.12 14.54 7 14.83 6.79 15.04C6.58 15.25 6.29 15.37 6 15.37C5.7 15.37 5.41 15.25 5.2 15.04C4.99 14.83 4.87 14.54 4.87 14.25L4.87 10.5C4.87 10.2 4.99 9.91 5.2 9.7C5.41 9.49 5.7 9.37 6 9.37Z" fill="#00C1FF" fill-opacity="1.000000" fill-rule="evenodd"/>
		<path id="Vector" d="M3 11.62C3.29 11.62 3.58 11.74 3.79 11.95C4 12.16 4.12 12.45 4.12 12.75L4.12 14.25C4.12 14.54 4 14.83 3.79 15.04C3.58 15.25 3.29 15.37 3 15.37C2.7 15.37 2.41 15.25 2.2 15.04C1.99 14.83 1.87 14.54 1.87 14.25L1.87 12.75C1.87 12.45 1.99 12.16 2.2 11.95C2.41 11.74 2.7 11.62 3 11.62Z" fill="#00C1FF" fill-opacity="1.000000" fill-rule="evenodd"/>
	    </g>
    </symbol>
    <symbol id="icon-levelFive" viewBox="0 0 18 18" xmlns="http://www.w3.org/2000/svg">
	    <defs/>
	    <path id="Vector" d="M15 2.62C15.29 2.62 15.58 2.74 15.79 2.95C16 3.16 16.12 3.45 16.12 3.75L16.12 14.25C16.12 14.54 16 14.83 15.79 15.04C15.58 15.25 15.29 15.37 15 15.37C14.7 15.37 14.41 15.25 14.2 15.04C13.99 14.83 13.87 14.54 13.87 14.25L13.87 3.75C13.87 3.45 13.99 3.16 14.2 2.95C14.41 2.74 14.7 2.62 15 2.62Z" fill="#00C1FF" fill-opacity="1.000000" fill-rule="evenodd"/>
	    <path id="Vector" d="M12 4.87C12.29 4.87 12.58 4.99 12.79 5.2C13 5.41 13.12 5.7 13.12 6L13.12 14.25C13.12 14.54 13 14.83 12.79 15.04C12.58 15.25 12.29 15.37 12 15.37C11.7 15.37 11.41 15.25 11.2 15.04C10.99 14.83 10.87 14.54 10.87 14.25L10.87 6C10.87 5.7 10.99 5.41 11.2 5.2C11.41 4.99 11.7 4.87 12 4.87Z" fill="#00C1FF" fill-opacity="1.000000" fill-rule="evenodd"/>
	    <path id="Vector" d="M9 7.12C9.29 7.12 9.58 7.24 9.79 7.45C10 7.66 10.12 7.95 10.12 8.25L10.12 14.25C10.12 14.54 10 14.83 9.79 15.04C9.58 15.25 9.29 15.37 9 15.37C8.7 15.37 8.41 15.25 8.2 15.04C7.99 14.83 7.87 14.54 7.87 14.25L7.87 8.25C7.87 7.95 7.99 7.66 8.2 7.45C8.41 7.24 8.7 7.12 9 7.12Z" fill="#00C1FF" fill-opacity="1.000000" fill-rule="evenodd"/>
	    <path id="Vector" d="M6 9.37C6.29 9.37 6.58 9.49 6.79 9.7C7 9.91 7.12 10.2 7.12 10.5L7.12 14.25C7.12 14.54 7 14.83 6.79 15.04C6.58 15.25 6.29 15.37 6 15.37C5.7 15.37 5.41 15.25 5.2 15.04C4.99 14.83 4.87 14.54 4.87 14.25L4.87 10.5C4.87 10.2 4.99 9.91 5.2 9.7C5.41 9.49 5.7 9.37 6 9.37Z" fill="#00C1FF" fill-opacity="1.000000" fill-rule="evenodd"/>
	    <path id="Vector" d="M3 11.62C3.29 11.62 3.58 11.74 3.79 11.95C4 12.16 4.12 12.45 4.12 12.75L4.12 14.25C4.12 14.54 4 14.83 3.79 15.04C3.58 15.25 3.29 15.37 3 15.37C2.7 15.37 2.41 15.25 2.2 15.04C1.99 14.83 1.87 14.54 1.87 14.25L1.87 12.75C1.87 12.45 1.99 12.16 2.2 11.95C2.41 11.74 2.7 11.62 3 11.62Z" fill="#00C1FF" fill-opacity="1.000000" fill-rule="evenodd"/>
    </symbol>
</svg>

